<svg width="90" height="48" viewBox="0 0 90 48" fill="none" xmlns="http://www.w3.org/2000/svg">
    <path d="M15.5901 16.3398L15.5776 22.9777C15.5751 24.3688 15.1941 25.7192 14.5394 26.8962C15.1901 27.8896 15.5662 29.1325 15.5636 30.5246L15.5479 38.9914C15.5413 42.5041 12.8984 45.7187 9.64343 46.1762L0.806641 47.4145L0.872314 12.0527L9.70947 10.811C12.964 10.353 15.5964 12.8266 15.5901 16.3398ZM9.65857 38.1777L9.66919 32.3461C9.67041 31.4687 9.01636 30.8488 8.19983 30.964L6.72766 31.1703L6.71069 40.1842L8.18323 39.9767C8.99963 39.862 9.65662 39.0588 9.65857 38.1777ZM9.68701 22.8044L9.69458 18.7565C9.69568 17.8788 9.0415 17.2592 8.22534 17.3737L6.75281 17.5815L6.73938 24.8117L8.21179 24.6042C9.02783 24.4894 9.68542 23.6857 9.68701 22.8044Z" fill="#FDFDF1"/>
    <path d="M28.9988 8.09953L30.7744 43.2018L24.6172 44.0673L24.4355 38.4323L22.304 38.7311L22.1008 44.4211L15.9541 45.2843L17.8608 9.66447L28.9988 8.09953ZM22.5342 32.3481L24.2253 32.1105L23.6821 15.2052L23.1504 15.2795L22.5342 32.3481Z" fill="#FDFDF1"/>
    <path d="M39.5448 5.93766C43.1034 5.43717 45.9833 8.1464 45.9763 11.9872L45.9657 17.6068L40.0731 18.4357L40.0818 13.8481C40.0833 12.9709 39.4418 12.3175 38.6259 12.425C38.2 12.4843 37.8334 12.7143 37.5741 13.0382C37.3054 13.3644 37.1382 13.7856 37.1371 14.2233L37.1339 16.069C37.1327 16.6227 37.2072 17.1581 37.3465 17.6601C37.5801 18.4862 38.0028 19.2272 38.5856 19.8075L40.4492 21.6693L43.0293 24.2445C44.9026 26.109 45.9386 28.7846 45.9329 31.7196L45.9273 34.8027C45.9268 35.2887 45.8797 35.7712 45.7941 36.2414C45.1813 39.4872 42.5845 42.2262 39.4773 42.6628L37.6359 42.9215C34.0802 43.4211 31.1969 40.7128 31.2046 36.8717L31.2151 31.2482L37.1073 30.4203L37.0986 35.0077C37.0968 35.8888 37.7423 36.5422 38.5553 36.4342C38.9807 36.3744 39.3471 36.1449 39.6104 35.821C39.8749 35.4945 40.0425 35.0734 40.0435 34.6364L40.047 32.7936C40.0497 31.3278 39.5296 29.9884 38.5949 29.0561L37.6471 28.1149L34.1482 24.6225C33.8815 24.3576 33.6301 24.0749 33.3993 23.7804C32.0023 21.9928 31.2366 19.6628 31.2411 17.144L31.2468 14.0573C31.2475 13.7262 31.2708 13.4025 31.3135 13.0761C31.3336 12.9218 31.3571 12.7738 31.3865 12.6215C31.4456 12.3105 31.5184 12.0114 31.6134 11.7099C32.4968 8.87614 34.8897 6.59196 37.704 6.1962L39.5448 5.93766Z" fill="#FDFDF1"/>
    <path d="M55.1625 3.74253C58.7208 3.24277 61.6007 5.952 61.5938 9.79209L61.583 15.4129L55.6909 16.2406L55.6991 11.6527C55.7011 10.776 55.0593 10.1229 54.2432 10.2298C53.8178 10.2906 53.4509 10.5199 53.1908 10.8431C52.9226 11.1695 52.7558 11.5917 52.7549 12.0284L52.7515 13.8744C52.7503 14.4276 52.8248 14.9632 52.964 15.4649C53.1974 16.2918 53.6203 17.0321 54.2031 17.6122L56.0664 19.4747L58.6465 22.0499C60.5166 23.9144 61.5559 26.5899 61.5506 29.5245L61.5449 32.6073C61.5442 33.0943 61.4972 33.5768 61.4116 34.047C60.7984 37.2921 58.2018 40.0316 55.0943 40.4681L53.2532 40.7271C49.698 41.2267 46.8147 38.5177 46.822 34.6776L46.8324 29.0536L52.7249 28.2254L52.7161 32.8133C52.7147 33.6942 53.3595 34.3468 54.1723 34.2391C54.5983 34.1795 54.9646 33.95 55.2278 33.6266C55.4928 33.3001 55.6599 32.8785 55.6607 32.4417L55.6642 30.5992C55.6673 29.1336 55.1471 27.794 54.2122 26.8612L53.2642 25.9203L49.7656 22.4276C49.4983 22.1625 49.2476 21.8807 49.0167 21.586C47.6196 19.7984 46.8537 17.4686 46.8587 14.9496L46.8645 11.8631C46.8649 11.5313 46.8883 11.2076 46.9313 10.881C46.9511 10.7264 46.9745 10.579 47.0045 10.4271C47.0632 10.1158 47.1358 9.81675 47.2307 9.5145C48.1138 6.68149 50.5072 4.39756 53.3215 4.00156L55.1625 3.74253Z" fill="#FDFDF1"/>
    <path d="M68.3889 2.56381L68.3231 37.9293L62.4341 38.7572L62.4998 3.39194L68.3889 2.56381Z" fill="#FDFDF1"/>
    <path d="M82.4653 0.585449L82.4539 6.94214L75.0955 7.97607L75.0803 16.126L81.4756 15.2268L81.4636 21.5806L75.0685 22.479L75.0531 30.6284L82.4116 29.5947L82.3999 35.9507L69.1492 37.8127L69.2147 2.44775L82.4653 0.585449Z" fill="#FDFDF1"/>
    <path d="M86.0577 2.44672C86.2732 2.18452 86.5479 2.02875 86.884 1.98237C87.09 1.95405 87.3543 1.95795 87.674 1.99799L87.6727 2.74848L87.6495 2.76557L87.6137 2.75629C87.5422 2.61127 87.4447 2.48725 87.3208 2.3852C87.1968 2.28022 87.0761 2.23725 86.9555 2.25385C86.8117 2.27387 86.6911 2.37885 86.5896 2.56586C86.491 2.74897 86.4382 2.99994 86.4379 3.30903C86.4371 3.60883 86.4889 3.84076 86.5867 4.00043C86.6878 4.15864 86.808 4.22553 86.9518 4.20551C87.0724 4.18891 87.1837 4.12397 87.2915 4.0102C87.3997 3.89643 87.5076 3.73334 87.6123 3.51801L87.6486 3.48823L87.6709 3.50922L87.6701 4.25971L87.5846 4.29633C87.4575 4.34907 87.3331 4.39203 87.2094 4.4267C87.0852 4.46186 86.9646 4.4892 86.8434 4.50678C86.5234 4.5517 86.2597 4.4726 86.0476 4.26996C85.8361 4.06635 85.7317 3.77875 85.7329 3.40864C85.7334 3.02875 85.8418 2.70991 86.0577 2.44672Z" fill="#FDFDF1"/>
    <path d="M88.8818 1.71204C89.0905 2.07044 89.1941 2.47864 89.1932 2.93713C89.1918 3.39124 89.0869 3.82874 88.8776 4.24573C88.6707 4.66174 88.3865 5.00842 88.0267 5.28088C87.6676 5.55725 87.2754 5.72473 86.8544 5.78381C86.4299 5.84338 86.0382 5.78577 85.6795 5.61096C85.3211 5.43909 85.0376 5.17297 84.8325 4.81409C84.6244 4.45569 84.5242 4.047 84.5252 3.59241C84.5259 3.1344 84.6277 2.69739 84.8372 2.2804C85.0437 1.86438 85.3284 1.52112 85.6875 1.24573C86.047 0.969361 86.4391 0.804322 86.8639 0.745728C87.2849 0.68567 87.6765 0.740845 88.0348 0.915162C88.3941 1.09045 88.677 1.35315 88.8818 1.71204ZM88.5809 4.09338C88.7543 3.7345 88.8433 3.3595 88.8436 2.97131C88.8442 2.57727 88.7572 2.22278 88.5848 1.90881C88.4093 1.59876 88.1711 1.36878 87.8711 1.21692C87.5745 1.06458 87.2416 1.01184 86.8728 1.06458C86.5071 1.11536 86.174 1.26135 85.8735 1.50452C85.5725 1.74475 85.3374 2.04504 85.1603 2.40442C84.9833 2.76331 84.8947 3.13928 84.8936 3.52698C84.8931 3.91419 84.9806 4.26477 85.1561 4.57483C85.3318 4.8844 85.5662 5.11975 85.8661 5.27454C86.166 5.43323 86.4992 5.4845 86.8646 5.43372C87.2334 5.38147 87.5667 5.23645 87.8643 4.99377C88.1649 4.75452 88.4039 4.45276 88.5809 4.09338Z" fill="#FDFDF1"/>
</svg>
